<svg xmlns="http://www.w3.org/2000/svg" width="900" height="1800" viewBox="0 0 900 1800"><rect width="900" height="1800" rx="70" fill="#070812"/><text x="70" y="120" fill="#fff" font-size="48" font-family="sans-serif" font-weight="700">Up Next</text><text x="70" y="175" fill="#94a3b8" font-size="24" font-family="sans-serif">Queue • Reorder • Remove</text><rect x="60" y="230" width="780" height="120" rx="25" fill="#17142a"/><circle cx="130" cy="290" r="40" fill="#a78bfa"/><text x="195" y="282" fill="#fff" font-size="27" font-family="sans-serif">Now Playing</text><text x="195" y="317" fill="#94a3b8" font-size="20" font-family="sans-serif">Artist</text><g font-family="sans-serif"><rect x="60" y="385" width="780" height="105" rx="22" fill="#121426"/><text x="105" y="430" fill="#fff" font-size="25">01  Track One</text><text x="105" y="465" fill="#94a3b8" font-size="19">Artist</text><text x="775" y="450" fill="#94a3b8" font-size="25">☷</text><rect x="60" y="510" width="780" height="105" rx="22" fill="#121426"/><text x="105" y="555" fill="#fff" font-size="25">02  Track Two</text><text x="105" y="590" fill="#94a3b8" font-size="19">Artist</text><text x="775" y="575" fill="#94a3b8" font-size="25">☷</text><rect x="60" y="635" width="780" height="105" rx="22" fill="#121426"/><text x="105" y="680" fill="#fff" font-size="25">03  Track Three</text><text x="105" y="715" fill="#94a3b8" font-size="19">Artist</text><text x="775" y="700" fill="#94a3b8" font-size="25">☷</text></g><rect x="70" y="850" width="760" height="80" rx="40" fill="#a78bfa"/><text x="330" y="902" fill="#070812" font-size="25" font-family="sans-serif" font-weight="700">PLAY QUEUE</text></svg>